{"title":"Ghost Hunters International - S02E22 - Unfaithful Spirit (German","uid":6117468,"size":366642582,"categoryP":"video","categoryS":"tv_shows","magnet":"?xt=urn:btih:b9978837b1002d41c2a482a49e98f92a39489484&amp;dn=Ghost+Hunters+International+-+S02E22+-+Unfaithful+Spirit+%28German&amp;tr=udp%3A%2F%2Ftracker.openbittorrent.com%3A80&amp;tr=udp%3A%2F%2Fopen.demonii.com%3A1337&amp;tr=udp%3A%2F%2Ftracker.coppersurfer.tk%3A6969&amp;tr=udp%3A%2F%2Fexodus.desync.com%3A6969","seeders":0,"leechers":1,"uploader":"trialNerror","files":1,"time":1295617747,"description":"Format                           : AVI\nFormat/Info                      : Audio Video Interleave\nFile size                        : 350 MiB\nDuration                         : 43mn 34s\nOverall bit rate                 : 1 122 Kbps\nWriting application              : Lavf51.13.4\nWriting library                  : VirtualDub build 32839/release\n\nVideo\nID                               : 0\nFormat                           : MPEG-4 Visual\nFormat profile                   : Advanced Simple@L5\nFormat settings, BVOP            : Yes\nFormat settings, QPel            : No\nFormat settings, GMC             : No warppoints\nFormat settings, Matrix          : Default (H.263)\nMuxing mode                      : Packed bitstream\nCodec ID                         : XVID\nCodec ID/Hint                    : XviD\nDuration                         : 43mn 34s\nBit rate                         : 982 Kbps\nWidth                            : 624 pixels\nHeight                           : 352 pixels\nDisplay aspect ratio             : 16:9\nFrame rate                       : 29.970 fps\nColor space                      : YUV\nChroma subsampling               : 4:2:0\nBit depth                        : 8 bits\nScan type                        : Progressive\nBits/(Pixel*Frame)               : 0.149\nStream size                      : 306 MiB (88%)\nWriting library                  : XviD 1.2.1 (UTC 2008-12-04)\n\nAudio\nID                               : 1\nFormat                           : MPEG Audio\nFormat version                   : Version 1\nFormat profile                   : Layer 3\nMode                             : Joint stereo\nCodec ID                         : 55\nCodec ID/Hint                    : MP3\nDuration                         : 43mn 34s\nBit rate mode                    : Constant\nBit rate                         : 128 Kbps\nChannel(s)                       : 2 channels\nSampling rate                    : 48.0 KHz\nStream size                      : 39.9 MiB (11%)\nAlignment                        : Split accross interleaves\nInterleave, duration             : 33 ms (1.00 video frame)\nInterleave, preload duration     : 500 ms\nWriting library                  : LAME3.98r\nEncoding settings                : -m j -V 4 -q 2 -lowpass 17 -b 128\n\n","torrent":{"xt":"urn:btih:b9978837b1002d41c2a482a49e98f92a39489484","amp;dn":"Ghost+Hunters+International+-+S02E22+-+Unfaithful+Spirit+%28German","amp;tr":["udp%3A%2F%2Ftracker.openbittorrent.com%3A80","udp%3A%2F%2Fopen.demonii.com%3A1337","udp%3A%2F%2Ftracker.coppersurfer.tk%3A6969","udp%3A%2F%2Fexodus.desync.com%3A6969"],"infoHash":"b9978837b1002d41c2a482a49e98f92a39489484","infoHashBuffer":{"type":"Buffer","data":[185,151,136,55,177,0,45,65,194,164,130,164,158,152,249,42,57,72,148,132]},"announce":[],"urlList":[]}}